/* XPM */
static char *b72e7a53577145dba91ffb7d4bf620b9x9nWBwolWbSPMU5m[] = {
/* columns rows colors chars-per-pixel */
"64 64 236 2 ",
"   c #12100E",
".  c #1A1614",
"X  c #1E1B19",
"o  c #221E1B",
"O  c #26211D",
"+  c #29221F",
"@  c #2C2622",
"#  c #2E2824",
"$  c #322B26",
"%  c #352E29",
"&  c #382F2A",
"*  c #3B3328",
"=  c #3B322D",
"-  c #3E3630",
";  c #3F3832",
":  c #731A32",
">  c #701C31",
",  c #7F163A",
"<  c #7E1C3C",
"1  c #40372F",
"2  c #413731",
"3  c #443A34",
"4  c #4A3E37",
"5  c #473E38",
"6  c #4A3F38",
"7  c #672D3F",
"8  c #742334",
"9  c #752738",
"0  c #7A233B",
"q  c #7B2B3C",
"w  c #6A333E",
"e  c #74353A",
"r  c #4B4135",
"t  c #4D423A",
"y  c #51453E",
"u  c #564B3A",
"i  c #5E523C",
"p  c #7A443D",
"a  c #61543E",
"s  c #672A44",
"d  c #662B44",
"f  c #6A2B4B",
"g  c #7B2840",
"h  c #7D2C43",
"j  c #6A3341",
"k  c #7D3242",
"l  c #753D43",
"z  c #793848",
"x  c #6E2F52",
"c  c #6E3053",
"v  c #713255",
"b  c #73345B",
"n  c #773C59",
"m  c #773761",
"M  c #793A65",
"N  c #7C3D6C",
"B  c #7E3F71",
"V  c #524740",
"C  c #554A42",
"Z  c #5A4D45",
"A  c #5A464A",
"S  c #5D4D4B",
"D  c #5D5145",
"F  c #5E5149",
"G  c #5D4852",
"H  c #7C4443",
"J  c #784445",
"K  c #7E4A4E",
"L  c #645645",
"P  c #6A5C45",
"I  c #62554C",
"U  c #66594E",
"Y  c #644D57",
"T  c #6A4F5C",
"R  c #7D4357",
"E  c #7E4D52",
"W  c #675950",
"Q  c #6B5D54",
"!  c #695359",
"~  c #6A535D",
"^  c #79595A",
"/  c #6E6047",
"(  c #746346",
")  c #75644A",
"_  c #7C6A4C",
"`  c #6F6057",
"'  c #6F6258",
"]  c #786854",
"[  c #73645A",
"{  c #76685D",
"}  c #796A5E",
"|  c #7F7055",
" . c #7D4266",
".. c #6E5361",
"X. c #6E5B64",
"o. c #735563",
"O. c #745A64",
"+. c #7B5C62",
"@. c #765768",
"#. c #755B6A",
"$. c #7B5B6B",
"%. c #7E4073",
"&. c #7D5D72",
"*. c #7A6265",
"=. c #7B6D61",
"-. c #7B616D",
";. c #7F7164",
":. c #7D6472",
">. c #7C6973",
",. c #8A0E32",
"<. c #851236",
"1. c #811439",
"2. c #83183A",
"3. c #80243E",
"4. c #811F40",
"5. c #812341",
"6. c #832A46",
"7. c #802F48",
"8. c #813445",
"9. c #85324B",
"0. c #873849",
"q. c #843B4B",
"w. c #863C50",
"e. c #893C52",
"r. c #834A42",
"t. c #84434D",
"y. c #834B4E",
"u. c #8A5448",
"i. c #854552",
"p. c #894455",
"a. c #844B53",
"s. c #894956",
"d. c #8E4759",
"f. c #8C4B5A",
"g. c #835254",
"h. c #855B55",
"j. c #8A5A57",
"k. c #84545A",
"l. c #8C545D",
"z. c #835C5B",
"x. c #93614E",
"c. c #846759",
"v. c #8C645C",
"b. c #966858",
"n. c #877559",
"m. c #98775D",
"M. c #A06F57",
"N. c #A3755C",
"B. c #814A6B",
"V. c #8C5C62",
"C. c #835868",
"Z. c #915661",
"A. c #925B64",
"S. c #814475",
"D. c #83457C",
"F. c #864D79",
"G. c #854B7E",
"H. c #885476",
"J. c #855C74",
"K. c #8A557C",
"L. c #8B5D7C",
"P. c #965D77",
"I. c #8B6462",
"U. c #8C6B65",
"Y. c #866569",
"T. c #926265",
"R. c #926C63",
"E. c #92646B",
"W. c #946C6A",
"Q. c #807265",
"!. c #897B67",
"~. c #967265",
"^. c #9B7365",
"/. c #957569",
"(. c #9A746B",
"). c #9D7B6B",
"_. c #836572",
"`. c #84627B",
"'. c #87697A",
"]. c #846C79",
"[. c #966778",
"{. c #897474",
"}. c #85717B",
"|. c #8A737D",
" X c #977877",
".X c #A07E6C",
"XX c #A26878",
"oX c #99825E",
"OX c #A0865E",
"+X c #988469",
"@X c #8F8272",
"#X c #998676",
"$X c #A68869",
"%X c #AF8F6C",
"&X c #B5946C",
"*X c #A48472",
"=X c #A78977",
"-X c #B3887C",
";X c #AD9576",
":X c #B4997A",
">X c #BBA37D",
",X c #C6A778",
"<X c #D6B17D",
"1X c #864B82",
"2X c #8C5784",
"3X c #915C8A",
"4X c #915E90",
"5X c #8B6786",
"6X c #8C6484",
"7X c #966885",
"8X c #91638B",
"9X c #8D7582",
"0X c #957785",
"qX c #956693",
"wX c #987193",
"eX c #AC7B87",
"rX c #9A8181",
"tX c #A38782",
"yX c #B98788",
"uX c #B79587",
"iX c #BEA383",
"pX c #CC9E86",
"aX c #C48F90",
"sX c #C6AC84",
"dX c #C6A988",
"fX c #CDB486",
"gX c #DAB28D",
"hX c #D6BA88",
"jX c #D5BC8B",
"kX c #E5BB87",
"lX c #E7B891",
"zX c #DBC38D",
"xX c #E8C58C",
"cX c #F6C98E",
"vX c #E8C393",
"bX c #F4C893",
/* pixels */
"{ @ F { [ r t I ' F V { ' Q [ Q Q t I ' $ Z [ =.Z 4 Z I ' ' ' y % Q } ;.Q.} Z y Z Q Z O $ t [ [ F C ' ' I C y 4 C [ } Z 5 Z I I ",
"y = t [ ;.U { { Q 5 =.' I I Q Q V 4 C t V ' =.Z 6 4 4 4 C ;.[ ' 3 4 W =.Q.[ Q Q S @ = I =.{ Q t 4 F ` Q Q [ Q I r y U C F % 2 4 ",
"3 @ Q ' } ;.{ [ ' 3 { Z t 6 V t 4 4 t - Q Q V 4 4 4 4 t U ;.;.' U % t Q [ ' [ I % = I [ [ Q Q y y Q ` ` ` =.=.=.Q y 4 4 I W @ 5 ",
"o 2 Z Q ' ^ Q Q Q r 3 5 4 4 4 4 r r # Z Q t y r 4 4 4 Z { ;.;.} Q @ 4 C I Q S - 2 4 Q Q ' ' ' Q W Q [ ` Q ' =.;.} Q U Q Q W 2 $ ",
"X 4 4 t F Q Q C 6 4 @ 5 4 4 2 = $ = X 2 Q C Q W I S u Z =.Q.;.} [ & 2 r 4 4 4 + 4 t Q I Q Q [ Q Q Q Q F y y Q ^ [ ^ [ Q I 6 @ o ",
"- 1 4 4 4 6 t 4 4 4 @ = 2 + - y V V F - W Q [ [ Q ' Q [ { ;.;.[ ' U . % = $ o + 4 t Z U F 4 Z W Q Z 4 4 6 4 6 F ' Q I y 4 # . o ",
"I $ 3 4 4 4 4 4 4 6 % @ t Q [ =.{ ^ Q Q & Q Q Q [ Q [ Q Q D y u F V   o 5 Z 4 + 4 4 S W Q Q Z 4 4 6 y F Q u 4 4 r 4 4 4 $ 1 I [ ",
"Z F @ 4 4 4 4 4 4 4 # 4 [ Q [ Q.=.[ [ [ = y Q [ Q Z I c.m.&X,X,X,X,X&X$Xn.] t $ o O 2 t V W Z 4 4 Z Q [ Q 6 4 4 4 4 4 o & 3 y I ",
"Z S F $ 4 4 4 4 4 # X W ' [ { ;.Q.[ Q ` t = 5 u m.kXcXbXbXvXlX-X-XlXbXbXbXbXbX;X[ - O   & r t 4 4 Z Q Q r 4 4 5 4 = X X $ r 4 4 ",
"I I { V = 3 5 = $ & $ W ' Q =.;.Q.[ ^ [ D u &XcXkX-XeX7XeXyXP.2XG.[.aXyX7XeXuXlXvXsX] 5 % # 2 6 4 C Q Z 6 4 3 $ = C { =.= 2 4 4 ",
"Q [ ;.{ V % X ; Q 4 3 I [ Q Q [ [ Q W P ,XxX-XP.G.1X1XB S.P.%.%.D.S.P.1X2XqX4X8XwXuXzXsXP # @ & 5 6 Z 5 - O X t =.Q ' ;.[ @ 2 r ",
"U [ =.=.' W X [ Q Z Z C Q [ Q I 6 r OXlX-XK.1XG.S.%.%.N N p. .M M M B.F.F.2X3X8XqXqX9XuXjX;XF y & o @ 5 F Z @ ' [ r F [ W - . 2 ",
"6 Z Q ^ Q ^ 3 W } Q.Q $ S Q Q 6 3 <XkX X1XD.%.B N M m b b R R v b a.w.B %.K.K.2X8X8XwX8XrXdXsX' [ 4 S y Q [ 2 Q ^ Q Q U 4 2 X o ",
"4 4 t Z y Z U r [ Q.` * = t t u <XpX7XG.%.B N b b x x f s r.r.f d g.u.n  .B.F.H.2X6X8X7X8X9X:XiX[ t U Q ' ' % t W Q I t 4 $ I Q ",
"4 4 r 5 4 4 D $ I Q Z 4 o # u kXuX1XD.B N M b x f d d j p r.u.r.p u.r.r.R R B.H.L.L.6X6X5X5X5X#X>XL t D I Z r O = t 4 4 % 5 I Q ",
"2 4 4 4 4 4 3 o 4 y 4 4 o 1 <X-X1X%.B M m x d d j p e 8 > > 8 p p 8 8 8 e H E C.B.J.L.2X5X5X5X`. X;XL 4 4 5 r & O 2 4 & = 4 4 V ",
"$ 5 4 4 4 r % o 4 4 4 4 * ,X,X1X1XS.m b f d s l e 8 8 8 8 : 8 r.u.8 9 9 q 8.z y.C.C.J.J.`.6X5X5X:.#X$Xu 3 r ; @ # X $ o 5 4 y W ",
"% & 4 4 4 = o o + 2 1 $ &X<XD.S.S.m b d d j e > 8 8 9 8 0 0 8 v.b.9 0 q 8.8.8.q.q.k.C.J.J.`.J.`.`.:.+XoXr * 5 ' [ Q F Z - % 4 I ",
"% X $ $ # $ 3 4 + o * ( kXK.D.S.m c f d J e 9 9 0 0 0 0 0 0 H &X&Xu.9 k 8.8.q.t.t.t.a.V.J.J._.J.&.&.*.+X/ y ` } ;.=.=.=.=.F % 2 ",
"@ = 2 3 4 C Q y + 4 4 kXpXG.S.S.x < d y.p 8 8 0 0 0 0 0 0 9 &X+Xm.&Xp q 8.0.q.q.t.t.s.k.W.C.J.J.&.:.-.+Xm.L W U ' =.;.Q.;.;.' Z ",
"Z Q W Q Q ` ` 4 * 3 n.cXyX[. .R e r.x.N.H 9 0 0 0 g < 0 q c.e < 0 7 j.J 8.q.q.t.t.i.i.g.(.(.W._._.&.Y.+X+X/ 3 4 6 y Z Q [ { { Q ",
"I } } } W Q Q 5 1 1 <XpXK. . .c w x.b.b.m.9 0 0 0 < 1.k c.0 5.0 0 g g h.a.q.q.i.t.p.y.v.U.W.W._.-.$.-.#.n.n.r 3 6 4 4 6 t V C Z ",
"Q.Q.Q.Q y y W I @ c.gXD.D.S.b f d p 8 9 w %X).t.0 < y.>Xk < 0 < < < 5.k %XI.t.i.g.T.^.g.E a.z.$.$.$.@.@.! n.i $ = @ o @ @ $ = & ",
"Q.Q.Q.Z 4 6 y Q 1 &X-X1XS.m x f p e : 0 0 m.fX,X$Xm.fXsX: < , < < 4.g 6.*X>X(.^.=X%X^.y.a.a.a.*.C.$.@.#.~ ` ( Z ^ Z = 2 = # @ = ",
"Q.Q.[ y 4 4 6 Q L kXyXS.N m f f u.e 9 0 0 m.hXjXzXvXxXfX<.<., , < < 5.g *XdXiX:X:X-X~.a.a.E E U.@.$.@.o.! ( n.a ;.W $ t r r C ` ",
"[ { Z 4 4 4 4 Z c.cXyXS.M b f l N.x.e q K iXhXhXjXxXcXxX0.<.2., 2.< 5.q.>XdXdX:X;X;X*Xj.a.E z./.C.@.o.o.! _ _ i ' W = ` I F =.;.",
"S U 4 4 6 6 4 6 $XlXeXXXn z 7 u.N.$X$X%X>X,Xb.z 3.0.%XxX&X<.2., < < g R.fX=Xz.a.k.v.).).~.b.U.W.U.^ ^ ~ [ c._ P U - F =.;.;.;.=.",
"4 r 4 4 6 6 6 L ,XlXeXP.R z w M.N.$X$Xv.K g < , <.,.,.u.kX&X9 < < 0 R.sXR.w.e.p.s.f.a.h.v.c.b./.U.O.O.O.^ | c.( r - ` ' [ } *.Q ",
"1 4 4 4 4 4 y i cXgXH.S.b x j b.N.r.0 < 0 2.< 1.<.,.,.,.0.xXxX>X:XfXjXI.9.w.e.e.p.s.s.s.a.y.E v.U.^ o.o.T Q c.c.* % t I Q Q Z t ",
"# 2 4 4 4 4 4 L cX-XS.m b x e M.r.< 0 0 0 0 2.< 2.<.,.<.<.x.xXzXzXjX%Xh 9.w.e.f.s.s.s.s.a.K g.^ U.*.o...T Y P ( u # 5 4 t r 4 5 ",
"Q @ 3 4 4 4 4 P kXXXD.S.b x 8.x.8 9 0 0 2.2.2.1.2.<.<.<.<.9 xXzXzXzXa.6.9.e.e.p.s.s.a.a.a.K K E I.+.o.~ T Y Z _ i I $ 4 4 4 5 % ",
"Q Q # % 3 $ o _ kX3XD.S.b x H u.> 9 0 0 0 g < < 2.2., <.2.: fXzXjXjXk 6.9.e.e.p.s.s.s.a.a.y.R E c.z.o.o.T Y A ) a Q @ % 2 & = U ",
"4 y 4   . & 4 _ kX2XD.S.b v p u.8 9 9 0 0 < g 1., , , , < : fXjXjXjXz 6.9.w.e.p.s.s.s.y.a.y.E E z.*.o.~ T G A ) i ` @ @ ; C [ =.",
"4 4 2 o $ * 4 ) kXG.D.S.v x z u.> 8 0 0 0 0 < < < < < < < h jXjXhXfXa.6.9.q.w.p.p.s.s.a.a.a.a.a.I.+.o.o.T Y A ) D D r =.;.;.;.{ ",
"2 # $ 4 4 2 % a kX2XG.D.n b l u.8 0 9 5.g 5.5.5.5.g 5.4.< z.jXjXfXfX+Xh 9.e.p.p.d.s.f.f.a.a.g.g.c.C.o.o...Y Z _ i = [ ;.;.;.{ W ",
"$ 3 y C t 4 3 u kX7X2X1XN n z x.e q q 6.8.6.6.6.6.6.6.6.g iXhXfXfXfXsXi.e.p.d.f.f.l.k.k.k.k.k.z./.-.$.#.X...F | r r } ;.;.` V % ",
"y L [ [ Q L V y <XeX3X1XF. .n b.r.8.8.6.8.9.9.9.9.9.9.9.a.fX*Xz z T.sXT.d.d.Z.Z.Z.Z.l.l.l.V.V.Y. X-.:.-.#.X.` | ; Q ^ Q F 5 # 3 ",
"Q Q.Q.Q.[ [ [ S %XuXqX2XF.B. .v.u.8.8.8.0.0.0.e.9.e.e.9.T.dXz w.9.q.:X).d.d.d.Z.Z.Z.Z.V.V.V.I.U. X]._.:.-.X.{ | r t Z V ; O 4 W ",
"=.Q.Q.Q.[ Q Q W !.sXqX3XL.H.B.z.b.z q.q.0.p.e.e.e.e.e.e.(.:Xw.e.e.e.#X*Xd.Z.Z.Z.A.A.A.V.V.A.E. X{.'.]._.:.X.=./ - r 4 * @ 5 F ' ",
"=.Q.=.=.Q Z Q Q U vX5X4X2XK.H. .b.u.q.t.t.e.p.e.e.B.e.e.+X=Xp.e.p.p.(.-Xf.Z.Z.A.A.A.A.E.E.E.[.rX'.|.'.].>.*.+XD V = o o = r Z I ",
"F ^ [ Q V 4 t - @ sXtXqX8X3XH.H.V.R.t.q.i.i.i.p.i.s.s.i..X*Xs.s.s.p.R.=Xl.Z.A.A.A.A.E.E.W.[.#X X9X9X}.}.>.;.!.U ' ' I $ O 6 6 6 ",
"= D Q Z 4 4 2 X X n.dXqX8X8XL.J.C.^.b.t.i.i.i.s.s.s.s.s.).).s.s.s.s.T.=Xl.Z.A.A.E.T.E.E.[. XtX9X9X9X}.}.>.@X] Z I W Z 3 X % % = ",
"% 3 r 4 3 % o o & = zX0XqX8X5XL.H.I..XR.g.t.i.s.s.s.a.g.=X*Xa.f.s.s.(.*XI.Z.Z.A.T.W.E.[.rXtX0X9X9X9X|.}.;.@XZ r 5 3 = 6 F [ [ F ",
"I 5 - 2 y [ I $ t Z *XiX5X8X8XL.L.H.A.(.^.v.h.g.g.g.j.).*X*X/.j.z.b.*X*X.XE.I.E.T.[. X=XtXrX0X0X9X9X}.}.@X!.5 & = t ' =.=.=.[ ' ",
"Z Q Q { Q.Q.=.& t F Q hX0XwX8X5X6XJ.C.W.^.^.^.^.^.).)./..X.X^.z.^ ^.).)./.). X=X*X=XtXtXrX0X0X9X9X9X9X>.#XZ & F Q Q { =.{ Q I Z ",
"4 F =.;.Q.Q.=.t 3 C } +XdX9X5X5X6X`.J.C.(.(.^.R.R.~.E y.E c.z.a.a.g.~.k.k.V.). X XtXtXtX9X0X9X9X9X}.>.#X!.4 r t y y y y t r 6 6 ",
"5 4 F [ { =.Q & 6 [ ;.' :X;X5X5X5XJ.J.J.(./.W.^.R.v.K K y.E g.E K K h.k.k.V.W.#X=XrXtX#X9X9X9X9XrX>.@X#X4 $ & 4 6 6 6 6 5 5 = $ ",
"$ 4 r C I t @ = r Q =.[ U iX#XL.5X`.L._.|.Y.C.E.~.I.E E a.^ c.E a.^ z.k.V.V.{. X X9X|.rX|.9X9X}.>.@X#Xi 4 Q 4 $ # $ o @ @ = t W ",
"o 2 4 4 r ;   ; 4 V Z Z 6 U >X{.>.`.`._.&.C.$.@.C.I.z.E ^ I.v.E E c.W.c.V.Y.{.].'.9X9X9X@X9X}.>.@X#X;.# r W Q W F F @ & 5 5 r V ",
"5 % 2 4 r # F ; - 4 4 4 4 4 P :X;X#X X:.&.&.&.@.$.@.+.+.c.U.U.^ +.U.Y.Y.*._._.>.'.>.>.>.>.#X#X#X@X=.U # r r F ' ' W - F r ; = $ ",
"F { y 2 @ ` ;.` - 5 4 5 = & * L ;X;X/.#.&.&.@.#.@.@.@.o.o.o.^ C.+.O.o.$.$.-.:.:.:.:.>.>.>.@X#X+X' 5 # o # r r C I ; W { ;.;.=.F ",
"Z Q.Q.= % ;.;.=.Z o o & I Q I y D $X+XX.#.#.#.@.@.o.o.o.o...o.^ +.~ O.O.#.$.-.:.:.:.>.>.=.@X+XU 5 O X O O X % % @ @ I *.;.=.=.Q ",
"6 I =.{ I C =.=.Q X = Q Q [ [ Q I r n.+X[ ..................T ^ ^ o.o...X.X.X.X.X.#.X.=.!.n.I * # r D W U y - ; 5 $ Z ^ [ [ Q Q ",
"4 4 Z Q Q 4 ` Z 5 r ' ' [ =.=.[ ` I % i n.n.Q W Y T T T T T ! ! ! Q T ! ..X.X.~ ~ ' ;.n.U 5 & C ' ;.;.;.;.{ ' ' ` 3 - 6 V Z Z 6 ",
"$ 5 4 W ^ t Q t 5 t Q ^ =.Q.Q.Q.=.` C $ 3 i c._ ` L Z S G S Q G Y Q S G S F U ] | | D ; % X $ Q ' { =.=.;.{ ' ' ` U $ 4 4 4 = # ",
"t 1 4 Q Q = Q ` ` 3 Q Q [ =.Q.Q.=.Q F X .   o r P c._ P a _ _ D a _ ) P ) _ ] ) D u r . O o @ 4 D ' ' { ' ' ' ' Q ' 6 @ 2 # % 4 ",
"= 2 t ' 2 4 I Q Q V $ r Z Q ' { ` Q = = 4 W 5 @ 1 3 t i a ( ( ( ( ( ( L a i Z Q =.[ 4 # $ t 2 % 6 6 Z I Q Q U I Q ' Z % = 5 4 Z ",
"@ 3 t Z O 2 6 r r % $ # 5 t y C F 4 @ I I Q [ F & 4 4 4 3 2 Z 4 3 3 6 V * 6 U Q W Z @ 4 I { F # 2 4 4 6 y y 4 6 Z Z & 2 F Q Q { ",
"  = # @ ; 6 % 3 5 % Q F # 4 4 4 5 = 3 Q Q ` } [ * + 2 6 1 * Q F 4 4 y W = 4 4 4 2 o $ I [ ;.[ Z . 3 4 4 4 4 4 6 4 2 o Z Q [ [ =.",
"3 t U *.' W Q Z @ V t F o @ - 4 5 @ V Q S Q [ F 2 Q y 5 2 + Z Q W Z u 4 @ O # O @ 1 = 4 S { [ Q & @ 2 4 4 6 4 6 5 o 6 Q =.Q.Q.=.",
"y ' ;.[ V 4 C Q V 2 4 4 Q Q 5 # X X I Q r S Q 4 I =.[ ' Q @ 6 6 y 6 6 % r 5 5 4 C Q & 4 y ` Q Q 3 W 5 @ # 2 4 = @ C Q =.Q.Q.Q.{ ",
"C [ [ Q W I F ' Q % 3 V =.Q.=.Q t @ Z Q t F [ 2 Q } U Z Q C % 4 4 6 & t W 4 4 Q =.` # 4 y Z y = 4 Q { } Z # O o y Q Q { Q.Q.=.F ",
"y Q ' Q =.=.=.=.' - % t ' =.{ Q Q S & Q C Z Q - Q Z 6 4 C Q $ 2 2 & @ W Q Z I =.Q.Q $ 4 6 4 4 o 5 y S U Q Q 4 @ + C Q Q [ =.[ y ",
"4 6 C U [ =.;.=.' 3 & 4 I ' ' ^ Q W & U Z t I # t 4 4 4 4 y C @ $ . 4 Z Q Q [ Q.Q.y 2 4 4 4 # & 4 4 4 4 t C S 5 o 4 y C Z S I 6 "
};
