/* XPM */
static char *result[] = {
/* columns rows colors chars-per-pixel */
"64 64 90 1 ",
"  c #161514",
". c #191714",
"X c #1C1916",
"o c #1D1C1B",
"O c #201B17",
"+ c #221E1A",
"@ c #25211E",
"# c #2A231E",
"$ c #252423",
"% c #2B2622",
"& c #2D2925",
"* c #2D2C2A",
"= c #302722",
"- c #332B25",
"; c #392E27",
": c #342E2A",
"> c #392F29",
", c #36312D",
"< c #3C332D",
"1 c #343331",
"2 c #3C3631",
"3 c #3E3935",
"4 c #3E3B38",
"5 c #42362E",
"6 c #44382F",
"7 c #413731",
"8 c #443A34",
"9 c #4A3D36",
"0 c #443D39",
"q c #4B3F38",
"w c #4E4037",
"e c #46413C",
"r c #4D423B",
"t c #52443D",
"y c #59473F",
"u c #56483F",
"i c #59483F",
"p c #4D4641",
"a c #534740",
"s c #554A42",
"d c #5B4D44",
"f c #564E48",
"g c #5B4F48",
"h c #5D5047",
"j c #57504A",
"k c #5D5149",
"l c #5F5650",
"z c #5F5851",
"x c #614E46",
"c c #604F48",
"v c #625147",
"b c #63554C",
"n c #69564D",
"m c #65584F",
"M c #6B594F",
"N c #655750",
"B c #665951",
"V c #6B5C53",
"C c #715E53",
"Z c #6E6157",
"A c #6D6259",
"S c #746156",
"D c #796357",
"F c #74645A",
"G c #79665B",
"H c #76695D",
"J c #7B6A5E",
"K c #7B6C61",
"L c #7E7064",
"P c #816B5F",
"I c #816E62",
"U c #857165",
"Y c #887367",
"T c #847369",
"R c #8B766A",
"E c #8E7A6D",
"W c #947E72",
"Q c #958176",
"! c #9B8277",
"~ c #9C8579",
"^ c #9E897D",
"/ c #A08377",
"( c #A2867A",
") c #A48A7D",
"_ c #A98B7F",
"` c #A48D81",
"' c #A98E81",
"] c #AA9285",
"[ c #AE9589",
"{ c #B09689",
/* pixels */
"uNmBhumVh:0AFmmfdqdkrrAVrFVrsSdbAFbfuhara,&VHusbLHHHufbrVmf2hFwe",
"9khtdfrt3wkVFhw9q8dartHH8hd0mZNZVFFbdrrrh77mm0drFJLKa788FAmtHHhm",
"<<trmr93:wrrsr<7rrsVBBJF8<<7bbmhsdNb879rm7b325h3fhkmr,krfd2wZukF",
"d8<9u88kb68wwr<hFBfNVNvk20r<ahsshtr87r8wr8Hrd8hr9rrr0tHr9<:9t2rh",
"mr7888uVZ,r897eZLFsrdt82#hm2<9rdhr8<7988<mHkKqqq:9we9bZ7<<r5rk8w",
"78HVfmdmf<hs<8uZHSh<2727,dFms,7rr<aHr8%<tVhZA8-8-&55<uu72kkrHK23",
":rmauk8u9tAV3dfVNgt788baabFVs787r3NAr<-<rutZk2:9h3<<:8w7kmehFAuZ",
"hr8r8w,,<rkbdZhst9<sHFVsamVr<mHdmdbb78r828<t77tZJhbkhr37AZ2tdwAH",
"ewkFf7fdr9srrhu:88>aNmaFatd12dd0hr9r8mVd92<<:suJLVFFbmwfbFwew2Vh",
"9rHmruVHHhrw<<7:2>&8t9qKNq8rB0apte<7rFLZbkFkpNsFHVbVrthrkHFe5<92",
"<8br9tuhZZu8-:7tfdgW!W~``^~`^^```)~Q^`]TVE[`W!WKZm9ur7u5tlZkrf,<",
"hefw9<2<<935w<sHDmH`''''[]{{]{[]]]))`)]RV]'~(~`Jrr,<::9&9wwubbr<",
"hrVt80fr<5dmk8NZkqV/(///`('(`'''))I()(_!Q`///(~m<57<-52>5866twul",
"9hHVrmJkfbHmb8fr2sH(`((_(^^^'''''!S__W__`^_(~)~98rrrebhfu36:2tVZ",
"ehZh7FHdFHFuue<:NFt=+++===%#@####:8++++++O++--%<hVFhwFAkZkZe8wrw",
"bwe,:ht5mmhrrt<<FMq6+=+#+#=+%===-58-=#=#%%=---:qmJHmeuhmHHKtr2:<",
"h5<:7985rrrqth8ra05hr888qqpraapadbndatatrqraasNhsdmf<97ZZFFrhN08",
"t:0urfAf<8t9tsrV,w9kFFFKGGKIKKITTTTIKKGKKKKKFFda0e<<:,<bhhh:whhZ",
"87ZrrAJhrAgq8<bHsAeu882<<888qqrrqqqq89q88>5707qquZ5mmhrrr98e8<hA",
"7fJrwmbhHFr<<rFNZF2587>><278qrprrqqqqq007<127787Vm0uVZV8<rNHZkwf",
"wfLr3rwfHa2=7tgsFb<;8r08e0rsskvgcccddddaa4p0r>%8mst9uFK8%8ZHFZ0<",
"mrHAw8<rt8t82899d87aVNzzBBBUREEERERWmEICVBNllra2werrrkH988rvbbr8",
"urVJVkbmbVGnsqqtVbnBGEWWQErbBBNncMBbqVNaWWWERDVbmZbrsZJMFBmMMVsk",
"<<rMMSSSCGIYYPaCYKGnqssddg$12<3711071121aaaeuasGJPUhGRGJIUUPJJFH",
"&,9MMVVCCMDCCK7CJSCx96688a2fpfvnbgBdffp3d8786qdCGIGIPGCGSSCDCCCJ",
"ta<nMMMVCCCVVV2CGCMntsttyt0fJCVa<7u<VKj0datttaNCJGGGCCCCCCCCMMCC",
"bbrMMbnVCCGVVN8CDCMMt7:>22pNGK2>7a7%KKVp17<<89nCGSDCCCCVVMCMMMMi",
"NFVMnnMVnCCVCn8CCCSCxBxvVp0zK7<2170B4KBp0NccMsCFCDDCDCCBVCVnMMMd",
"fHZmnBBVVCKDKb8CDDCCbGCCDapkgr0r<10g0alfpFCCFgDFDFGCCDCVCSCMMMCv",
"fAbtgvhbbnCMVV8bCCCBbJSSGahDpjfz24271<bN0KGGDdVVVNVVVBnmBMbbnvb9",
"9ur<XOOXOXO+@#%@XO@+OJVCPfdBBfjk4pe127abaCGDH@++++++@@+%%+OOoX-5",
"998r<>>>>->88q97;>><%DDDPdcqp0ff200p4p0NfJGGD122>>77<7<9278888w5",
"d1>daaadadxxnnnxdxs9*KCJFes<44021>1fpj2g8GGFF<8ihhxhdgsgywvsddCt",
"N%:dgdscq>>55566><<*O0pp92pp340pfp2e0p0p,0eer:-:<<<><<<<<8vdxvZr",
"t0k2qqaq<7qq99999q7<*JKJUga11104pp11112guIIIH,-5959@<rrq9<rwrsd8",
"7dC72>>-@*-;;;==-:*%$CFFCfa1$$:&*1**$1$guPGDD*@&-&-#%<::-+:<<7r8",
"arVtdq08%:-:5;55-;%:@CSDSfs81411001210*dhJDSS:#&:<<555<>&@899r<7",
"g9qqxdda$>5999668<<&@NSCDst,4pq102*0ef:dkDSSF,%-<8ttt999<%rfiMbr",
"u928qqt8=589999985<:@FCCFau344p3221gpf1dfDSDF:&-69uuttq98%38rkKZ",
"tr7raasq=5qqy9y999<:@SCFt<r*111**1***11buDDDF-#>8wstatur8-3trahN",
"AmmVbdxr#59qyqy9t9<:#BSJV2210$1$p0%4$11a0KGIF-&<9tstaust8-3dxd-<",
"FFvdsxit=6qqqyqqu9>=%7urr0d002g1Nj10ep0b0qq08::<9ttttuut8&8dxm77",
"bVf8sxst=5yqyqqyt65;#VVSCaf222z4ff1app0btDGGZ-:>9tatqyyq5#qdxBsh",
"rrw:uyyr=69yyqyy99;;@VVVVfr341f22010400gaGGCS&-<9qtqyqtt9-agdhNJ",
"999<dut8#6qqyywww6<=@BVMCae&%$1$11$*$**drGCCC&-<6qatuqtt9-ttttsm",
"8r<0v08<#6qqwwwyw6<-#BnMStr*,$1$re@::::xrCDMC-:>8qaqtttq7-298q9q",
"d:tabyyr=599y99ww6>-#VVCCr0:1::%pk:01*1drCCMM::>8rrrtwtt8:tddB<7",
"ZrVdxttt#599yq6ww6>=@vnMMrq:,*e1sf3f$1-drCMnV:#-8qpat99q9-rysbtB",
"fsFswyt9%<9r9w99665=OibvM701p141fp121e,32nnvu:#;8aaaq9yy6=wtytFK",
"q8sr6tww#<9wqw9665==@<888,e@$$$$*$o$$$%t:25<,##=7qqayqw96;txi<Ab",
"9:78<ttw%589ww9955;#@MSVFr9@>@f:1>$e*:%rwSCCm##=6qqyyqy96-ti:,t7",
"5<:8f77<%7889w9965;#OvnvBw8,:$f01::r132t6bnbm##-69qyqyq96=<8<r<3",
"rd<kVuur#556999995;-+bvvM8811&012%:2p02a2nvxv##-69qyyq996#9ivm9<",
"VB7bvtr9=5;699996>;:+vxgm8012:1*>**111*r2mxxv@@:56qdxq996-ryyurs",
"bb7rrt9w;;56699655<-+xvvm87o$$$o$*o$$oXt8Mxxv##>58qyy9997-9ytiNF",
"rt8<8rwr%;;6666955<#Odvbb88<k1s40a1p48-88vvvh@#-56qyt9995%8wtfds",
"9rf7twyr+>55588657:#Otbmn001l:N022*<4p18<bbbt@+=<8tuu6665-9wtt<2",
"9tvrd9r<+;5579966;-++<990>81p*f311*1201e:9002#@#<wwtw6w<>&<w9d77",
"rrrtv09<@-;556668;-+Ogvnc08$$@%$$$$$$$$q9bnvh@+-2rwww96<<#<e8hfh",
"87<Zn986+-;;5668;;#+Xixdd77$$o*+&<@:+@@q<xixd@@-<566656;;#5wu2mJ",
";<aSd665+=;;;555;=#+Oyydc28&$$2*,r*3*::a<vdxu@+:<<556<<;:@769sav",
"&7rs9-;:O====;5;-==#Oqyyd7>%$$1$*2$311:q<viii@o#-:-;;:;=##:#%B88",
"r8<892<:.#==#-=##%#O.wyya21.oo$ ooo$o@o2<hwwuo.@#-#@-:-%:@,:<V87",
"Vs876>>: X+#+%=#$++X.wq9q;&%g+p2q0o8*4+:,iwetX.X@@#<,#@%@o<88h7h"
};
