/* XPM */
static char *_f5d61de7bcc4432e967a24fc6a2fe6btNUy0iFpMI72THBO[] = {
/* columns rows colors chars-per-pixel */
"64 64 79 1 ",
"  c #0D0B0A",
". c #120F0E",
"X c #12100F",
"o c #161412",
"O c #1A1614",
"+ c #1D1917",
"@ c #1E1B19",
"# c #221D1A",
"$ c #26211D",
"% c #29221E",
"& c #262220",
"* c #2C2521",
"= c #2F2824",
"- c #2F2B28",
"; c #322A26",
": c #362E29",
"> c #382F2A",
", c #37302B",
"< c #3B332D",
"1 c #3E3631",
"2 c #40362F",
"3 c #413731",
"4 c #443A34",
"5 c #4A3E37",
"6 c #473E38",
"7 c #4B3F38",
"8 c #4D423A",
"9 c #51453E",
"0 c #534740",
"q c #554942",
"w c #5A4D45",
"e c #5B4F48",
"r c #5D5047",
"t c #5E5148",
"y c #5E5149",
"u c #5F524A",
"i c #60524A",
"p c #60534A",
"a c #61544B",
"s c #63554D",
"d c #63574E",
"f c #64564D",
"g c #65574F",
"h c #66584F",
"j c #675950",
"k c #685951",
"l c #6A5B52",
"z c #695C52",
"x c #6B5C54",
"c c #6B5D54",
"v c #6C5D54",
"b c #6E5F56",
"n c #6D6055",
"m c #6D6156",
"M c #6F6057",
"N c #6F6157",
"B c #6F6258",
"V c #706157",
"C c #716258",
"Z c #716259",
"A c #72645A",
"S c #73655B",
"D c #73675B",
"F c #74655B",
"G c #76675D",
"H c #75685C",
"J c #77695D",
"K c #77695E",
"L c #786A5E",
"P c #786A5F",
"I c #796A5F",
"U c #796B5F",
"Y c #796B60",
"T c #7A6C60",
"R c #7C6E62",
"E c #7D6F63",
"W c #7E7063",
"Q c #7F7164",
"! c #807265",
/* pixels */
"6AR858kNqqUAvNNhqBk 0GRw8jvZvZ>:vRQ!K888fv3#;wKAcAKctwtkLN8;eNVA",
"=NWtwGVewFAcNNvq6f69SRj7559wYZk;qZ!!Gkjk5:4pABt88jmNvsw69NKw,598",
"8vKQRGV8NNw69w85688bkq75558s!LBs<9vYZcN<:9VFBc88wNNNGRYv9589v,,5",
"tvAFAZvs8q6555566;kv975555wF!RFv*5pvNxw<5pNVBNcwjBvNAR!Ecw9pVw%2",
"80fNvvw9=37755556#cf9fw9959YQ!Yv;55808*65hvVVZZvZBvfwvGLNVVvp2%%",
"5659w8575#7<:<<<144vkZvVVkNY!!SZq#34<;#78pws9pkckq8758tvNcsw8#+*",
"355575555#;9kALAvG3evZVvVVvvvfkvfo+:4<#779vkkw89779ft5599983;5hH",
":45575555#eNNY!KvFf:tvVVkpw8758w4 kGRh:%:2e9ks559kVvw555553$39wc",
"s;665583#:ZvNRQEVVV;79w9855551<1#X8L!p54>%#>89758vNw86654:#o5558",
"At;555:*5,NZAE!EZVv9$<555552+;; @o6k!kqqw94:%4555jp6553$<kRd:555",
"RYt,%+9983NvvFSAvVv84*&:<,%#qFt*q99wRGvZZv99<#>55w86,*#HLV!!8<55",
"RWAc,*Y9t7vZZBe989954*<8<<8vRG<03kfwZZZZvp95$97;;#389*3Rw8KFpX:5",
"jNNcf=RKY94fvs55553%*p!!LLYAZt;Z3evNvZvq52%<vY!Le2qvNqqAkjNw5#$*",
"8qq9k3vRLf*5975555%5wLGFVVNZc<NR0<wvvBf7<*5tGQRFp9kNV9,fVc9528cc",
"5555w<9kk93O>55575o<78evvjr9<s!!c&6qfw8<o%47ww95>3wpr9;;8553:whN",
"57555#45775o%#*=;:o:5557975%9G!RB<<577;;wvw2554::>57555#;58;358q",
"55555X25582;542<,,%#*48555%:9kFLvs=454#sVLN*%,5fv:7555;;#*$;68wj",
"5554#$#22<;9vprfcV5#46,47&;559kfww7:*,<:*69:5KQ!!G:52<dANst8:30c",
";:*;27<O:<wR!WUUKN,5NRr<1<<;55557552=56784<wR!!!Kj9#3cK!QRRRA3:8",
"445qfk,<8kRRVVVVp>5wWWNVVVve#2555555O*37534qZFw9877<NfppAKW!!Rf3",
"VVvNVv=5wRLVVhc3*<,1r6389::;;%2<<;>>ss<*;<:6vw95555:958589wkAAAj",
"RLkhvN:58wdw96*<996,$+<849w954<4549GEAqqcr$wp555555;553224558898",
"!Fq9qV426553;#3sNcq<%$qHRRRk99wfNv>AYAkcNN:wkf75554*<%;2>o+#%><*",
"!p658fr$<4;#:pKRWA0:c3wU!!!ZcvFVNv:8rdBvcw*tLkw655<$:9kZV,54<,:t",
"Y95559V:;%:;<AWWAh;8B49vRQ!KL!!!!Ze:58jw7:1Y!YZvfw38fAK!H68869vL",
"f85555v9:555#dUAc<46kq3qNLSY!!!!!Zk&5554:*9RQRZvSs>kR!!QA<fAkK!!",
"855558vv$5ew3,ur<#55tv*5wvBvvNFKYvjO:3;1k39kSNks0>*jKRRK8wAR!!RA",
"55555fVk+5cAd1O$4*45wN5=5998559wwsw&@3tAv3779887;O:wBjq9*qcNAVkw",
"55555893%8ARVw*0L8<8wNc:2555855577w&=RQRb0<7661o@8;89771o57wh985",
"555555>#4wR!Vw8WQc=88w94#5555555777*dSRNj6:77>O$1j>64,345:755554",
";4552%:9kW!Uh3UQQA&*8555<#255555767>vSvvq5#:#<j:cc:<3sAGG<3854,5",
"w+;%%59kNUUw<BWWAB=;%455:oo%4444443;tqq8573:*cc3vc*qAEQEL4@*;1fN",
"5#.255559wk3vFLVee&###*=qs1@#;;***##555555:<cRN:r9<AF!!RA<<tNRRA",
"=:5>>455574<kvf774>577qaANN89955575::55583*GQRA;5<0NNVvvs8K!QQYv",
"45554>:3554;99757*557fBFQYLc>kfpw9wvw>35<%7E!QA<3;80q998;k!!QNw1",
"qvh9555;:3:#554>#5w57kZ!QQRN9pLRAbZBMk#*8v*aLWLq=;6855541NYRc6::",
"RLFVfw864,57%;%#;if77pKQQ!Yvwj!!RMqwvM<vFk:8vY!K9*55556%9kct6*3p",
"!!LVAvvh<fLLklk#>kk77wbGYQKZpwVFLe559p7MV97wvL!!Rp:<551$568<=5kA",
"!!GscAN5wK!YMvM<2kk56qbbvSBvw<8kk5557<qq9:59avFLRRct::161:*#59vv",
"LGk99w4:8cLfwwMe=59578qvvfBveo657555:>a75;<5779wsNAv<GQZjq;@2599",
"kf855:+:55755eMMl=>55557559s<;#255<*#4554##555555593tvkkchw**<37",
"8854*o#%57775pfwpe#:245554:%254%#####35>OO<>5555555;kw5585<;6tq<",
",::6r#64*3775554=#%:>:##=;>5555574.0p==<5:f<%>5642;%9764:4dLQRAc",
"kcL!Wq<rk3:>>;##<759Ml=55555555963;vMkpfx6kp53:;::2&:<<qcKRRYcht",
"LR!!WA<6kRkq74>2579x!i:558qwwrcw74<kKRFvNqwZs68eww5:<59qwwww0865",
"wGLUKf:w!!RMAk547wCA!I*28cFGR!!Ke9>wvLLAv4YRNvNALKf=3<555555543:",
"59kp9#4pTRYxpx749MLALLw=8AR!!!RKv77599ewwwWRANKQ!Fq=e7=**%=*;38p",
"5555%o58wwq7777<9MTAMklq<cNvFANNZ<157555<GQKvAGQRZ6>tvvpp3:<4499",
"255<1416856753#3wNVFv9wv6w<:<tfkq*=5767;9YRGftvRLv345evMM3q41:;3",
"w442YE83554<:$@3wvv9995wv#394;*>#%#%&*;*8jvt8qvvp7#;57qkt7vRRGk<",
"W8,wQQB*;*8ttw<;59w55555q,vVp7$tAGk8579;579767w8<O&##:1:&wcRQRZk",
"FKN6GRA<@qNNNAv6,5555555<8RKv6+sGFFvkkvq<575573;3wkkq733;6cZSNNf",
"9ccwrj9<vNcYQYAvw<6566<:rQQZs<8;5fNVZNGv<<755<8vAQQ!EvvMt>59qw94",
"5tNrwd81vVAQQ!RGA1252$*qvRYf3h8812qvvKQRB3;3#$fVZRQQRSZBv4<764;:",
"5kv7pAvr9vvKRQ!KV3oO.+<58pq:tq65q>49vR!!Leo$+;4wvAAAvZvvAvO>2*37",
"8kf;wkcv#39dvGANk;65k1;65555q0676p>5wNR!Vq**55*569scZktvNv*3359k",
"8q3*6688$=<699ww5<fsBV0:55669w5579q<8fvfw:1rFh:,55599759t7#9fkvR",
"3,18713*fj3<5557;wvvvRj*:45<5vw97qf:454>**wvRKs$%55575555#7kFGLR",
"jKYfsc8<q89*=45<#kj9vA6qvw88;wvkw93;%%*>5<59AAN8:*755556*<kL!!!G",
"RGw77tc,67qYv4&##Zw5fA4GRNFv:55555>9558rN<58vvj3kf>==53&9vG!!QRk",
"NNvvvvA64<v!RGk8$jf5kv3FAw9k9,775;qk58k!V:58993:fAYvq&#*fvNY!RZ,",
"kVAQ!!St>*fAYAZvw9c6pv3f9559p:3<%:kVrhL!f:5555#489wfvf>&4pNvGKk=",
"7wfKERZf#77svZvpw,k89q%8555589#>#59fkZ!L8>555::5555559t#47899ww:",
"567qvfq%*>77qt87,#9553o255555::5><5559qw9;555#5555555599>7555574"
};
