/* XPM */
static char *_1e3d1f45e0c4b5ec86973589d4f09a7EesR8jKrF52oXwZ0[] = {
/* columns rows colors chars-per-pixel */
"64 64 204 2 ",
"   c #0D0802",
".  c #0D0C0A",
"X  c #140D03",
"o  c #120F0E",
"O  c #0F100C",
"+  c #1C1204",
"@  c #13120E",
"#  c #151512",
"$  c #1A1614",
"%  c #171812",
"&  c #1B1B16",
"*  c #1D1C19",
"=  c #231605",
"-  c #2B1907",
";  c #27190A",
":  c #221E1A",
">  c #1F201B",
",  c #382307",
"<  c #34220B",
"1  c #3B240A",
"2  c #2A2516",
"3  c #24221D",
"4  c #29221E",
"5  c #2C291B",
"6  c #362A17",
"7  c #262521",
"8  c #2C2522",
"9  c #272821",
"0  c #2D2A25",
"q  c #2D2E29",
"w  c #322A26",
"e  c #352E29",
"r  c #382F2A",
"t  c #2F3027",
"y  c #2F302B",
"u  c #34332B",
"i  c #3B332D",
"p  c #3C3B2F",
"a  c #363632",
"s  c #3D3631",
"d  c #3B3A33",
"f  c #3E3D39",
"g  c #452B08",
"h  c #4D2E0D",
"j  c #583708",
"k  c #462D13",
"l  c #46351B",
"z  c #553915",
"x  c #643B13",
"c  c #423423",
"v  c #4A3C26",
"b  c #40362F",
"n  c #433C2B",
"m  c #503E26",
"M  c #413731",
"N  c #443A34",
"B  c #4A3E37",
"V  c #473E38",
"C  c #4A3F38",
"Z  c #3F4034",
"A  c #3F403B",
"S  c #5D4817",
"D  c #6C4408",
"F  c #7F5205",
"G  c #4B402E",
"H  c #5B4928",
"J  c #424334",
"K  c #43433B",
"L  c #4D423B",
"P  c #494A3D",
"I  c #554734",
"U  c #51453E",
"Y  c #5B5236",
"T  c #664F2A",
"R  c #7C6429",
"E  c #454541",
"W  c #4A4743",
"Q  c #474842",
"!  c #4C4B43",
"~  c #4D4E48",
"^  c #524740",
"/  c #554A42",
"(  c #5A4D45",
")  c #5B4F48",
"_  c #535144",
"`  c #5D5146",
"'  c #585947",
"]  c #55534B",
"[  c #5D5149",
"{  c #5E5149",
"}  c #5E5B4C",
"|  c #5E5C52",
" . c #5F5D58",
".. c #60534A",
"X. c #63554D",
"o. c #63564D",
"O. c #64564E",
"+. c #65584F",
"@. c #64594F",
"#. c #665951",
"$. c #695A52",
"%. c #6A5C53",
"&. c #6B5D54",
"*. c #6C5D55",
"=. c #6D5E55",
"-. c #6E5F56",
";. c #5F6053",
":. c #62614F",
">. c #696448",
",. c #75694D",
"<. c #7E7048",
"1. c #636253",
"2. c #6D6156",
"3. c #6F6057",
"4. c #6C6B56",
"5. c #64645B",
"6. c #6C645A",
"7. c #6A6A5B",
"8. c #706157",
"9. c #706E57",
"0. c #716258",
"q. c #72645A",
"w. c #73655A",
"e. c #74665B",
"r. c #75665C",
"t. c #76695D",
"y. c #76695E",
"u. c #786A5F",
"i. c #796A5F",
"p. c #6F725C",
"a. c #7A7557",
"s. c #73735C",
"d. c #7B7B5D",
"f. c #6B6A64",
"g. c #6F6E68",
"h. c #766B60",
"j. c #7A6C60",
"k. c #7B6D61",
"l. c #7D6F63",
"z. c #757464",
"x. c #7E7063",
"c. c #7F7164",
"v. c #7B7B64",
"b. c #73766A",
"n. c #7C7B6B",
"m. c #7D7D73",
"M. c #8B5C06",
"N. c #955D10",
"B. c #AD490A",
"V. c #99620E",
"C. c #916114",
"Z. c #AF7410",
"A. c #816F3F",
"S. c #C97A10",
"D. c #807342",
"F. c #877D57",
"G. c #807265",
"H. c #817E62",
"J. c #827F6C",
"K. c #817E70",
"L. c #7E805F",
"P. c #BE8106",
"I. c #CE8A04",
"U. c #D79005",
"Y. c #C88815",
"T. c #E39704",
"R. c #EDA006",
"E. c #FAA704",
"W. c #FCAA02",
"Q. c #89815D",
"!. c #858464",
"~. c #898867",
"^. c #84826E",
"/. c #8B8768",
"(. c #8B8A69",
"). c #938C6D",
"_. c #9F9162",
"`. c #858572",
"'. c #888672",
"]. c #868871",
"[. c #8D8A75",
"{. c #8B8B7C",
"}. c #908E75",
"|. c #8E9179",
" X c #949274",
".X c #93937A",
"XX c #999779",
"oX c #AC9E6D",
"OX c #A79E73",
"+X c #878781",
"@X c #949383",
"#X c #989988",
"$X c #9A9B8A",
"%X c #9C9D90",
"&X c #A19F84",
"*X c #9EA093",
"=X c #A2A185",
"-X c #A4A48B",
";X c #A8A689",
":X c #AAA98D",
">X c #AAAC94",
",X c #B7B8A7",
"<X c #BFC0AC",
"1X c #C2C4B3",
/* pixels */
"V q.k.U C C $.*.( U i.3.8.3.3.%.( *.$.. ^ r.i.( U +.*.3.3.3.e u 3.i.G.G.r.U C C $.*.M : 0 / i.e.$.q.e.3...( ` O.t.8.L w ` 8.8.e.",
"0 8.k.) ( q.0.) ( t.3.*.8.3.3.U C O.V L e.k.O.C C C U { t.0.$.w ( 0.G.G.r.$.+.$.C w N O.q.q.{ U L +.3.3.*.O.( B U 8.t.( i N U L ",
"L 3.i.G.G.r.8.C 0.8.( B U ( L L C C L *.%./ C B B C C O.G.t.3.O.r U 8.i.8.3.*.r e U 8.r.q.$.U V ( 3.3.3.0.G.r.*.U L L U *.u r B ",
"{ *.8.e.0.3.8.X.L U L B B B B B V w $.*.U V C C B B { 0.G.G.0.*.4 C X.*.3.$.) b C ..*.8.*.q.$.( #.3.3.3.0.G.G.G.%.( U { *.` 4 b ",
"V U X.3.3.*.( U w i L V B B B B C : $...U X.( U C C U t.G.G.t.3.w C C U U C 8 C C $.&.*.3.3.8.8.8.8.&.X.( *.r.i.8.3.3.3.O.N : 5 ",
"C C B U ( C B C L : B i w i i i i B N q.+.3.3.3.8.$.3.r.G.G.r.0.( : b M b w : C C ..` O.U X.$.*.+.( C C C L ..*.3.$.X.( N : : 8 ",
"b C C B C B B B B : e L %.q.t.q.3.3.M ) 3.3.3.3.8.3.3.*.*.X.$.*.X.@ $ e M b : C C U *.$.$.( C U L B U O.{ B B L / B B N w B X.t.",
"e N C C C C B B B : ` 3.3.i.c.t.3.3.O.e { 3.3.3.$...( U C B C ( B . $.q.G.+.r 4 w B U U $.X.B C U +.3.3.( B B B B B N : N L ( $.",
"O.w N C B B L M : e 3.3.3.k.G.k.3.3.3.8 C U ) U L B B B B i i i : o C k.G...C M r 4 : r C U C C U $.*.( C B C C B w : $ N B B B ",
"0.{ w C B B w 8 B e 3.*.q.k.G.G.q.3.3.U : M C C B B B b & e w . $ $ C $.G.$.( U ( / N e 4 M C C L $.{ C B C M : b $.k.O.w L C B ",
"l.i.) u 4 & ^ U L M q.q.3.e.e.q.*.*.#.U B 8 4 e b e 4 : / q.` 0 ^ U C ( k.r.3.3.3.3.U U M : r B B ) L N i 8 : 0.i.0.c.G.V c C B ",
"k.G.r.*.e 0 i.U ..V *.*.3.0.( U U U U L M 8 i C i i L *.k.i.d P N $.#.( 3.q.3.*.$...U C : U C w 8 : s L ^ 8 N G.( L r.r.X.# e B ",
"$.3.3.*.O.w k.i.k.U N +.*.X.C B B B b 3 0 { c.c.i.i.i.q._ Z y y d a 8.3.3.3.3.( C b 8 s $.t.G.q.{ M ( $.*.( ^ 8.$.$.*.) B : 3 8 ",
"B ( ^ U %.i *.k.t.X.8 B U V C M V B 8 N ( i.t.q.8.3.{ s A Z u u K 9 ..3.3.3...C r 5 V ..e.G.G.r.{ U $.3.8.U M { *.$.U B M C *.*.",
"B B C C ( i U $.$.U b $ e B C i * i $ b B L ..*.%.K A E t t t u K 3 P U X.) C b $ : N C ( ( ^ B r b ) ....U e 8 L C C B r ( $.*.",
"B C B C C : M C B B B $ : 4 8 w 3 * $ w B B V L s Q u 3 9 4 t u Q 3 V V B B w w s : V s B C M r e e B C B B B : w C B 8 N C C / ",
"B B B B B o b C C C b 8 C N b i : & 4 * w N B N a q * 3 & > > t ! * e M B M : X.e & / 0 8 i V +.$.r B C B B w w : 8 3 w V B ) $.",
"C B B B : 4 : b M i 8 ( *.X.) i & 3 u : N N i u q * % & % > > 3 ! 3 L e 8 e i e * q w e N r.G.G.G.e.r B M i ..e.8.X.{ L e M ( $.",
"8 w w w s V r ; w b ) k.G.G.i.3 > > u N *.k.^ 7 & 9 _ _ 3 % > > E 7 0 i 8 C V C 0 * & ^ l.G.c.l.t.+.U : N *.r.G.c.l.l.l.q.b w C ",
"N N C U X.&.r r C +.c.k.0.*.( 3 9 3 B ( G.l.d q L. X!.!.L.d % > A > b.*.8 8 M C f * * s q.q.) U L B B M *.O...O.8.i.l.G.G.l.O.N ",
"3.8.3.3.3.*.8 C ) k.t.8.*.$.s 7 q q e s { E  .*X(.~.).~.!.L.u & d > v.{.{.a 0 8 w $ 7 7 &.) C C B B N e U C C C C U ( +.q.e.8.$.",
"k.t.$.+.*.3.e B C ( O.) U V 7 J J K f q 7 E >X(.(. X@X|.(.!.Q.> a 7 v.[.[.%XE V E q * : } L V s B B B w C C N b b N C N C L U L ",
"G.e.U U ( 3.N M L C C N w : 7 Z J 0 Z y a E 9.(. X-X-Xv.|.(.!.J y 3 z.[.'.`.m.q > > 7 7 &.o.E E s V N 8 b 4 w b r $ : : 4 e b 4 ",
"G.X.C C V O.X.: e N w : e ../ * 9 d a > 7 7 5 s.XX:X:X=Xp.^.~.>.9 > v.{.`.`.{.> 9 $ $ E r.&./  .1.d i 4 w U +.0.8.e B N b r e ` ",
"i.U C C B U 0.e w 8 w w i 0.l.a * 7 9 % > 5 > ' =X;X:X;X}.s.!.v.u > v.{.^.z.^.q & # 0 h.l.k.*.#.|.N N C O.q.h.G.t.B L U B U *.i.",
"O.C C C B B *.^ e B B B : X.k.q.P # # & > > % p.=X;X;X;XXX!.L.L.J > v.{.'.1.^.u # * ^ k.c.l.6.f.$X! r *.i.G.G.c.q.i #.q.+.r.c.G.",
"C B B B B B *.*.: B ) ( M e X...i 3 w & 3 > P  X=X=X-X=X=XXX(.!.' 3 ^.[.(.1.^.P ) M U $.0.*.( $X-Xp.8 $.i.k.k.t.L / q.k.G.G.k.q.",
"B C B B B O.*.$.: B *.0.X.M $ : N 8 N d @X4.Q. X XQ.F.Q._.oXOX X^._ (.).(.,.` U #.M C L ^ L e 1X>X].e ( *.$.( U 8 ( *.*.8.8.$.) ",
"C B B B B C U n : C 3.G.*./ 8 / t.L s E $Xd.v. Xp X   + + + 6 A. X[.[.T = - = i #.^ s B B V ] 1X>X|.q L C C C s @ B C ) $.U C C ",
"N B B B B B r : B { G.G.0.{ B k.c.%.0 ~ @Xs.F.).6 + D P.I.F 1 ; D.[.F.< M.I.g n { C w B B s +X<X:X].u L B r M N B r C B B B B B ",
"w n B B M : r U $.G.G.i.O.M k.G.c.6.8 W .Xi.d.).6 g T.W.W.R.D z k ).Y h I.E.M.G L B : e : 0 ,X,X=X4.w i M X.3.r.q.i M B C M e B ",
"( : w 4 4 B / $.*.j.t.) M *.c.k.r.3.0 W {.9.s.).c D R.W.W.W.V.D x ` c x T.E.F _ V V i e 8 g.,X*XXX! 4 ( q.G.G.G.h.B * 8 e s +.*.",
"B : o M B B C C C ) $.N *.0.G.8.( ) 7 V {.1.4.^.+.= M.I.U.Z.D x D c k j N.Z.< 6.N V e s +.%X,X.X|.d i 3.e.G.G.l.8.b r X.*.k.l.r.",
"w e B r e N C C B V N c +.*.X.C C V e K ].6.4.s./.n = - , 1 l k h h h g < 6 I v.V s 8 q.c.+X$X].z.u U 3.3.0.*.*.X.C t.G.G.G.k.*.",
"b C B B N r e M B B N w C U B C B 8 N J n.1.' 4.^.~.F.D.<.F.J.; 1 , < - p a.H.^.a 4 V h.%.#X{.^./ 0 L ( / U U B e $.G.G.G.*.( s ",
"U *.$.U B B C 8 r M r : B C M i : B ( P z.+._ _ v.^.J.`.^.7.b.+ - - = = 3 7.v.m.( &.0 f.+X+X;.7.u 0 B V B B B B s 8.t.j.*.C w e ",
"G.i.r.8.O.( U C B r V V 8 8 8 : w { O./ 5.o.} 1.3.v.J.z.1.#.g.X + + + X $ 1.z.n.h.%.f.%X$X5./ W P 0 B B B B C : U +.$.) N 8 N ..",
"G.G.i.8.*.0.$.O.r O.k.k.$.$.$.: e &.#.^ ] 1.} } } 1.1.o.} 7.! X X X X X X 5.4.n.e.| @X@X@X7.] t.k.{ e s B B s 7 C C U i 8 L $.0.",
"G.G.0.+.*.0.8.C ( t.c.k.8.*.3.i i &.+.V V U f.f.:.} } } } b.3 X X X X X   f 7.| L i m.+Xz.] +.i.k.k.3.[ e u N N b e 8 : C U *.*.",
"i.i.*.C ^ ( N e C $.t.X.U ` 3...8 V U B B B L ] | } @.:.} 7..     X   # & u 1.L B e 5.n.P V U ( X.3.3.&.i e.l.3.$.^ w * b C U U ",
"$.O.B C B r $ r C C C B B { 8.*.*.8 r B C B B B d S 6 ! V W @ @ @ y % 0 * V L B N 3 f.| P B B B B B U M { 3.O.$.$.+.) 4 w i M B ",
"C C V N 8 $ : 4 B C C B B { O.....{ : r M B B B s 9 * | y 3 8 v 2 u ~ q : s V i 8 : 5.a B B B B B B B w $.( C C C V i w V ` / i ",
"c r w N ) : V N 8 M C C B B B b w : 8 e e e : e s.| * 4.} 5 Z.Z.C.3 f.] { w 0 u 0 * q e : i B V N b w 4 C C B M e B O.i.G.l.0.$.",
"$.&.l.G.l.^ b ) $.M w e e w : : i B B B 3.$.7 ( `.K } z.b.z Y.B.Y.2 n.' T c U ( u * O 0 B i e w e e M 4 r i b U *.i.k.k.k.*.O.{ ",
"e.G.G.G.G.q.i B $.k.$.( U M i M L V ^ &.c.X.S R I ' 1.J.K.l S.B.Y.2 b.H l > y a y * L 5.X.C L { ( ( C e b N U ( ( ( ( ( U C C C ",
"( 0.t.G.r.O.e ) G.G.k.3.3.$.N M C ( *.q.c.X.# & l ] :.v.[.u z C.x : z.m % 5 9 * # > k.k.3.3.3.q.i.e.+.8 M r B C B B B C B N M w ",
"B U $...U : N ..k.i.t.*.X.$.U M U 3.k.*.t.u q 0 7 A ] 1.z.N 0 t 0 > J d u 4 0 9 & e c.k.3.3.t.c.G.e.( 8 ) C 8 8 8 4 8 8 8 M L O.",
"C C C C : $ C C ( { ^ C C C C i U 3.k.q.P 9 u y u A Q ! ] Q d A d a Z 7.J 0 > > & 5.c.k.3.3.t.c.G.0.C r ) 3.3.X...M e i B N U U ",
"b B B r M N s V V C B B B b : M ( 3.0.e.r 8 u q 0 | Z d A ! p d y & _ n.L E 3 $ U i.G.0.+...3.i.e.3.b M B ) 3.3.3.M / N s e 8 M ",
"( N N b k.k.L M C C C e w 8 & M / 3.*.U i @ & * t 4.;.' i i & > 0 3 H L *.0 * e C +.*.{ C U 3.$.X.C : w B C U $.) V 3.k.k.t.$.i ",
"G.L r ) G.c.3.0 w 4 B ....( s 8 B U ( B V M e 0 t Z ' u l L 0 7 0 % 4 v W q E e B C U C C C ) U r $ 8 : : w b e 8 ^ 3.k.G.k.0.&.",
"e.r.8.B r.k.r.i : ( *.0.3.3.3.C e B B B B B B B 9 % > > 3 N * # > % * y %.&.*.^ i C B B B C b 8 N / $.+.( B M M w B *.q.r.q.*.O.",
"U $.3.( { $.U i *.q.3.i.G.i.q.*.( M C C B B i w # % > 3 q u L . % 3 3 y L 3.r.*.b b C C C r L 3.e.G.l.G.l.3.3.3...r C C U ( U M ",
"C ..3.` ( X.L i *.*.q.G.G.G.k.r.0.s i B i 8 8 U & # 3 0 7 u V o % > 3 % N r.c.k.*.M 8 b : 4 O.3.0.k.G.G.l.q.3.3.3.M b B V B w w ",
"C +.8.N ..3.*.) U *.3.e.k.G.G.t.*.N $ $ o $ r V K 8 & $ & a V 8 & & > d q.i.G.G.i.) $ : & w b ) &.3.r.0.3.3.3.3.3.*.: e b 8 M L ",
"C $.O.w ( $.*.*.: M U X.*.r.q.3.$.8 B V &.s w C B B B N ^ ^ B B B ` e L ) 3.k.k.q./ 8 w C N w B V ^ X.*.3.$.) $.3.*.8 M M C U #.",
"B ( M 4 B C C L : w i V L U ( ) B r O.O.*.0.^ e B B B L U { B B B U / i L X.*.O.( w N { q.+.e r B B B U / C B C { C : U +.$.*.k.",
"b i i L B b N 8 O.+.M i B C B B w ( 8.*.*.j.&.8 e N B e B *.) C L U O.e N B B e 8 4 ( *.G.r.O.4 8 B B B B C B B B : B $.q.r.e.G.",
"$.t.t.O.X.$.L i ( C ^ 8 w N B r : $.$.U 3.0.C ^ *.( U C w ( &.O.( U M w 4 4 4 e C b C U 8.0.3.B e 8 B B B B V B 4 b +.t.G.G.G.r.",
"k.e.) L V ..*.e B N ( i.*.M 8 : : *.( B O.-.V r.c.*.3.*.e B B B B B e U L B L ..3.b C C *.*.$.N $.X.i 8 8 B M 4 U 3.q.G.G.G.G.$.",
"q.3.*.*.3.$.3.V N i $.G.k.e.$.L : $.X.B $.*.N 0.q.( ^ $.C r B B B w / $.B L $.G.8.e C C U U b r +.q.t.*.U 4 : 0 +.3.8.t.G.G.0.r ",
"$.3.q.c.G.G.e...r 8 +.q.k.0.3.*.( U *.B { *.M +.U B B U X.r B b 8 e +.3.( O.h.F.X.w B B C B : N C U ) O.*.+.r 4 b { 3.3.q.r.*.8 ",
"L ^ O.r.G.k.q.+.: B U X.3.3.*.X.( i *.C C / 4 B B B B B B ^ : r : B / O.&.3.G.h.U e B B C e w B B B B B C U ..: N B C U U ( ( w ",
"B B L / $.O.( 4 4 r N C ^ ) U V e : / C C M # b B B B B B e w B e b B B B L ( ^ U w B B B : B B B B B B C C U U r B B B B B C B "
};
