/* XPM */
static char *result[] = {
/* columns rows colors chars-per-pixel */
"64 64 75 1 ",
"  c #0A0807",
". c #0F0D0B",
"X c #100E0C",
"o c #15120F",
"O c #161311",
"+ c #1A1613",
"@ c #1D1916",
"# c #1E1B19",
"$ c #201B17",
"% c #221E1A",
"& c #26211D",
"* c #29231F",
"= c #262220",
"- c #2B2521",
"; c #2E2925",
": c #2F2B28",
"> c #322A26",
", c #342D29",
"< c #382F2A",
"1 c #37312C",
"2 c #3B332D",
"3 c #3D3631",
"4 c #3F3833",
"5 c #41352F",
"6 c #413731",
"7 c #443A34",
"8 c #4A3D36",
"9 c #463E39",
"0 c #4A3F38",
"q c #4D4037",
"w c #47403B",
"e c #4D423B",
"r c #53453D",
"t c #58473F",
"y c #57483F",
"u c #59483F",
"i c #4F4640",
"p c #534740",
"a c #584740",
"s c #554943",
"d c #5B4C44",
"f c #574E49",
"g c #5B4F48",
"h c #5E5047",
"j c #5E514A",
"k c #604F46",
"l c #625047",
"z c #64534B",
"x c #68574D",
"c c #67584F",
"v c #6A584F",
"b c #645750",
"n c #665952",
"m c #6D5B52",
"M c #6E5F58",
"N c #715E55",
"B c #6F6158",
"V c #736156",
"C c #756359",
"Z c #79665C",
"A c #77685F",
"S c #7C695E",
"D c #7D6B61",
"F c #816E63",
"G c #857165",
"H c #887467",
"J c #857369",
"K c #8A7669",
"L c #8D796D",
"P c #917B6E",
"I c #937E71",
"U c #958174",
"Y c #998275",
"T c #9A8679",
"R c #9D897C",
/* pixels */
"mVVZNZDZZFFJJLJIIPIPPPIYYYUYTTIYPRRIRRTTIPPPLKHHFHGFFNFFFFFNNxNx",
"mmNNNZZZZZFHJJIKPIUUIPKYIYYYIIIIPTIITTIIIHLHHHGGHHGFFHFFFFNFNNmx",
"vNNNZZNZFZFFFFLLLLPLPPHIIIIYIIIIPIIRYIIIPGKJHGFGFPPGFFFFFFFNNNvx",
"NvNNNZZZNFFFFFGJKKKLHPHIIIIIIIIIPIIRIIPPLGKKHGFFFFFGFFFFNNNNFmxx",
"NxmNNZZZZCFFZZFGFKKKHKKPIIPIIIIIIIYUIIPPLHHKHGFFFFFFFNFNNNNNNvxl",
"xxvmNZNCNCZFFFFFHJKHKKHFHPKPIPPKPIUYPPLLJJHFGFJJFFFFFNNNNNNmmxlx",
"xmvNNZNNNNCSZFFFFKHHJHLJHHIPLPKPLPPLILHKFJGKHJFJFFNNVVNNxNNNNvxl",
"vNxNNNNZVVNCCNZFFKJHJGLFGFZGKLKPLLJKILKHHHJFGJFFFZFNVVvNmxmNvmlx",
"mvkvNNMDSZNVVDJDCDDLLLJFSVxcLLHLLKKKLLKJJKJJDDDFFDZDNNNN6%;NxMzj",
"NNllNvmDDFCCDDJDCmDDLLJDCvmeJLJLPLKPPHJJJJJVmldVFZFDZNNd+-%mxbMb",
"%%*%%%%$%====%%--%=>1:4451>%;:-;**----=;>-=&--&%$%%%%%$O$%+$%$$+",
";;>->--%=-&-;-::>,00w4isprsw2,;,,,>,>;2113243<2,=-***--><5><>--;",
"7778i9797767900iwszddkclxbzgeereppiiewssddjjispr076565<2<68r0990",
"pddglp0sapprp0ppdmmjzNZZZBmbfjjsfdsdjsMMCVCBfjddre000>556erjkaga",
"fljgb%%%*--=---=%<65zNZZDi;;-13>,>-,;&bADSDA%*-&*%-%%-*->->bjgkk",
"sgngv<7787800e0epdsa70ZDD9ggrsfspppspiMDDCDB29ip00r65$%%-<2bjzgg",
"o@%=ooo++++$@+@&&%%@o1**+.##*&@@$#@@#+.#%%@ O@@@$@O@+-,*OOO.OOOo",
"-,79#+@%******-1:*--@rri1#;1;;:,;;;---#4ys6O%-&-*-**;377--@#725-",
"2eff>,23qqqqqersreee;dznw1shissrpprpi9:fMzp=79e0ee08rr0008;,arr>",
"0gbg4ispzllxvvBvcncc97VAircBBVBVNVMmBninDNc2dzdcjjzzakkgza63jgg7",
"ebbz7sfjxxxxvNVNmMvcq5CCfsVVZZVVCVCNNmsnVVc7zxzmmxxNjegxkge4bfk9",
"39793szzlxxxvVvvmmMjr7bMejVVCZVZCCCVMMsi007rvvxvmxkxmnvzkkp:7771",
"fzbvikzglxxxvVNvNNxbr6ADhcCCZZVZVZCNVVfnDSjpvNmvmmzzkzkzzkp9bbge",
"skdz0klgxxxxvVVvNNmMiwDBhxVVZVVVVVVZVCfzCCdrvvvvxmnxzzzzkke7bjk7",
"pdkxehlhzxxxvNNvNNNvpNZAjbMNCCZVZVVZVVpvVZsqmvzvvmvvxxlzzkp7bgz6",
"pkzledzlzzvxNvvNNNMv7NCCjbNCZCVZCCNVVmpbCZz0mxxmmNxllxzlzkr9bkk5",
"sdlledzzxxvvNvVvmNmv7MVZjzVVVVVVCVCVVVsbZVv0xvxmNmvxxxzkkka0zkg6",
"0gkz0kxlxxxxvvvvvNmN6DCCszVVVVVVVVVVVBrbVmv7cxmmNvvlllxkkka9lkd6",
"0kdg9kzdxxzzvvvVvNNM3MNVpzCVVVVNVNVVNvrjMmc7zxNNvvvxzllklla7lda6",
"3ads7dkdzxzzvxvvzNMm8kMMszVmvVVNVVVmVms0dgr7kzzvxlxvkzkddgs2008>",
"7gff7gkkvzzzxxvvmmmnrdMMscMvmVVNVVNVVBdemzl8zzxxxxlxzlklkkp3sr0<",
"9dgl7gllxxzxlxvxxzvz8zzMfzNmVVVVVVNmBBhjNNz0kzxxxlllxldkddr7kkk0",
"7psj9sdxxxxllxxvvvmx0zvVphmVNmmVVZVvxvdbvNl0zvzxcvzkkkkkkkp7lag8",
"<0fz9dzzlzlxxxxmvvxz7cVvplNvVNNNVVVvhmhzvmz7kvxvzzvllzkkkxr7jpa8",
"5udz9dzzllzxxxxxzvzv6zVvphvVNNVCVVmmzmszmml8zvvxzzzllzkkzkr7zda6",
"egdjqlllllllxzxxxvvv5zNmrhxNNvNVVcmvVcpzvml7dxxzzxzkkkkkxga7kka<",
"sjewwdllllllxlxzhvmz3zvmwyvVvNmVvvvmBmezzxl8uzxzzxxlkdkzzp04lar*",
"6dp9ehldkkllxllxlxxz3zmB9yvvNmNxmVvmvvrhzcg7dkzzzlllddklza93ff7*",
"-16fyzukkulzzzxzvvzz3wqi6hvvxmxmvvvmvcr30e98kzzzkllkkdkkkgr209,=",
"0sjdulquklllllzzmzzz2mMZwzvvxNxxvvvvvcejvMz8dkkzlllkdkkkgar4ga7>",
"0dzjfledukddkzzvxzzk5zvV9dxxmvxxvvxzxzqhvch5ukzzkkkddkkdkar3fp0>",
"2tbjplpddkktkkzzzzzl5zxv0dxcmvzxmvxxzxqsmmd2tkzkkkdddkkakap3gp0>",
"<tMdrdyaudddkkklhlzl7qvxpgxbvxzxxxlzzzwjmzd1ukkkkkkdkdadaa86gp-*",
"<klp7addkukkuzlrllzh77vx0dxvxzkxxzzxzl9sxxr>tkkkdkkkkdtkaa07kp8<",
"-ldd3sskkdddhzludlzlqqzcwgxvxxkklzxlllwsxzy>rkzkddkkkttak000kgp5",
"%daa2rrddutdhzlldlll7rzxedvzxxzkllllzzefzze2qdkkkkkkkttata00pg06",
"%00r<rdutsudzzlkluhd3szh8dzxxlzzkzxzulqedb77tukktkzktttkt000pga7",
">765<00dtudkzddldduy2sff2ykklkzlklllzzq9ss00tuddddkakttu0t00gge,",
"<tap,8tttudddkddkddu>xuk8yskzdkkdkglcde2kx77taadaaktuuuttrr7rdd6",
">80r,etqtuldpdtdkudt-ltt7rkkdkkkkzzzlp0,pkr8raddadatuuurrtr5jlr2",
"6are,0qrrtdeyrsdust0*lku70skdclldkjzgee7aks6rraattrtrtrq0081ksr1",
"<777-5errsy05tduutq8*jss65rtdldddkgpq0e6ddy<00aptdt0rr00085<r00<",
"2ppe-6rqrpye7ptaayr7%pss32qspddddgdpse32esw:00sp0tprr00602:3gpi<",
"0ape=,700rep066r0761=777,27qererrrwds7;3974%270000008872,-&:rsr3",
"r00p;&=;-<0ir7723,:=2gffe=;11>1123331:#fgep==:---,<3>;--%+#:e070",
"-,,6147660w0peeri97,:42767wiriffsspiiw39433;1w777777776621<;<,><",
"6333edr07qsssepdd01,ww0wif990pgfiw7794ii0009>7333333332<,,,12323",
"lpswessspfsdggsfapfwMnbbnnisfbggfipsssiDvlvmifpssipppsere94qpdds",
"lgepejgdpljsdcMzlfe7dagaMzggbDNDBipagffBkt00easgggkapdatr089r80e",
"zlrzgddasuyertdadgs20pdabpipagvzjspsr9jztkkk70paryrprprtr0578807",
"pr0dadptutr07dtrad0,r0tds980pdvgspddp8ptuukk58t800rtttrrq8858888",
"000rturtr0r00tutpk8<atadp98ppdgpgzyds8rakttk5888r0rt0rttq758q880",
"088ur8t0000r0tdrgk7,aparp70gdgesgdgdr6eyttu0558tr00r08qqr8558800",
"080t8888t088ttdtd06<0ddas70asgridky0638rtkkt5580tr0q0tu888558888"
};
